# xmcd
#
# Track frame offsets:
#	150
#	9320
#	21877
#	31807
#	43345
#	56297
#	74105
#	90692
#	108595
#	125282
#
# Disc length: 1877
#
# Revision: 2
# Processed by: cddbd v1.5.1PL0 Copyright (c) Steve Scherf et al.
# Submitted via: ExactAudioCopy v0.90b4
# Normalized: r0:TDELIM( - ),TSWAP
#
DISCID=8107530a
DTITLE=Ronnie Milsap and Charley Pride - Double Barrel Country
DYEAR=1900
DGENRE=Country
TTITLE0=Charley Pride - Kiss An Angel Good Mornin'
TTITLE1=Charley Pride - Mountain Of Love
TTITLE2=Charley Pride - Is Anybody Goin' To San Antone
TTITLE3=Charley Pride - When I Stop Leavin' (I'll Be Gone)
TTITLE4=Charley Pride - Missin' Mississippi
TTITLE5=Ronnie Milsap - She Keeps The Home Fires Burning
TTITLE6=Ronnie Milsap - Any Day Now
TTITLE7=Ronnie Milsap - Carolina Dreams
TTITLE8=Ronnie Milsap - Smokey Mountain Rain
TTITLE9=Ronnie Milsap - Let's Take The Long Way Around The World
EXTD=
EXTT0=
EXTT1=
EXTT2=
EXTT3=
EXTT4=
EXTT5=
EXTT6=
EXTT7=
EXTT8=
EXTT9=
PLAYORDER=
